<svg width="32" height="32" viewBox="0 0 32 32" fill="none" xmlns="http://www.w3.org/2000/svg">
<path d="M0 16C0 7.16344 7.16344 0 16 0C24.8366 0 32 7.16344 32 16C32 24.8366 24.8366 32 16 32C7.16344 32 0 24.8366 0 16Z" fill="#F59E0B"/>
<g clip-path="url(#clip0_308_12490)">
<path d="M15.3445 9.87629C15.373 9.72336 15.4542 9.58524 15.5739 9.48584C15.6936 9.38644 15.8442 9.33203 15.9998 9.33203C16.1554 9.33203 16.3061 9.38644 16.4257 9.48584C16.5454 9.58524 16.6266 9.72336 16.6551 9.87629L17.3558 13.5816C17.4056 13.8451 17.5336 14.0874 17.7232 14.2769C17.9127 14.4665 18.155 14.5945 18.4185 14.6443L22.1238 15.345C22.2767 15.3735 22.4149 15.4547 22.5143 15.5744C22.6137 15.694 22.6681 15.8447 22.6681 16.0003C22.6681 16.1559 22.6137 16.3065 22.5143 16.4262C22.4149 16.5459 22.2767 16.6271 22.1238 16.6556L18.4185 17.3563C18.155 17.4061 17.9127 17.5341 17.7232 17.7236C17.5336 17.9132 17.4056 18.1555 17.3558 18.419L16.6551 22.1243C16.6266 22.2772 16.5454 22.4154 16.4257 22.5147C16.3061 22.6141 16.1554 22.6686 15.9998 22.6686C15.8442 22.6686 15.6936 22.6141 15.5739 22.5147C15.4542 22.4154 15.373 22.2772 15.3445 22.1243L14.6438 18.419C14.594 18.1555 14.466 17.9132 14.2765 17.7236C14.0869 17.5341 13.8446 17.4061 13.5811 17.3563L9.87581 16.6556C9.72287 16.6271 9.58475 16.5459 9.48535 16.4262C9.38595 16.3065 9.33154 16.1559 9.33154 16.0003C9.33154 15.8447 9.38595 15.694 9.48535 15.5744C9.58475 15.4547 9.72287 15.3735 9.87581 15.345L13.5811 14.6443C13.8446 14.5945 14.0869 14.4665 14.2765 14.2769C14.466 14.0874 14.594 13.8451 14.6438 13.5816L15.3445 9.87629Z" stroke="white" stroke-width="1.33333" stroke-linecap="round" stroke-linejoin="round"/>
<path d="M21.3335 9.33398V12.0007" stroke="white" stroke-width="1.33333" stroke-linecap="round" stroke-linejoin="round"/>
<path d="M22.6667 10.666H20" stroke="white" stroke-width="1.33333" stroke-linecap="round" stroke-linejoin="round"/>
<path d="M10.6668 22.6667C11.4032 22.6667 12.0002 22.0697 12.0002 21.3333C12.0002 20.597 11.4032 20 10.6668 20C9.93045 20 9.3335 20.597 9.3335 21.3333C9.3335 22.0697 9.93045 22.6667 10.6668 22.6667Z" stroke="white" stroke-width="1.33333" stroke-linecap="round" stroke-linejoin="round"/>
</g>
<defs>
<clipPath id="clip0_308_12490">
<rect width="16" height="16" fill="white" transform="translate(8 8)"/>
</clipPath>
</defs>
</svg>
