<svg width="94" height="106" viewBox="0 0 94 106" fill="none" xmlns="http://www.w3.org/2000/svg">
<rect x="4" y="3" width="89" height="89" rx="20" fill="#D0BDF4"/>
<rect width="88" height="88" rx="20" fill="#D0BDF4"/>
<path d="M44 23.6875C39.9826 23.6875 36.0554 24.8788 32.715 27.1108C29.3746 29.3427 26.7711 32.5151 25.2337 36.2267C23.6963 39.9384 23.294 44.0225 24.0778 47.9628C24.8616 51.903 26.7961 55.5224 29.6369 58.3631C32.4777 61.2039 36.097 63.1384 40.0372 63.9222C43.9775 64.706 48.0616 64.3037 51.7733 62.7663C55.4849 61.2289 58.6573 58.6254 60.8892 55.285C63.1212 51.9446 64.3125 48.0174 64.3125 44C64.3068 38.6145 62.1649 33.4513 58.3568 29.6432C54.5487 25.8351 49.3855 23.6932 44 23.6875ZM52.918 40.418L41.9805 51.3555C41.8354 51.5007 41.663 51.616 41.4734 51.6946C41.2837 51.7733 41.0803 51.8137 40.875 51.8137C40.6697 51.8137 40.4664 51.7733 40.2767 51.6946C40.087 51.616 39.9147 51.5007 39.7695 51.3555L35.082 46.668C34.7889 46.3748 34.6241 45.9771 34.6241 45.5625C34.6241 45.1479 34.7889 44.7502 35.082 44.457C35.3752 44.1638 35.7729 43.9991 36.1875 43.9991C36.6021 43.9991 36.9998 44.1638 37.293 44.457L40.875 48.041L50.707 38.207C50.8522 38.0619 51.0246 37.9467 51.2142 37.8681C51.4039 37.7896 51.6072 37.7491 51.8125 37.7491C52.0178 37.7491 52.2211 37.7896 52.4108 37.8681C52.6005 37.9467 52.7728 38.0619 52.918 38.207C53.0632 38.3522 53.1783 38.5245 53.2569 38.7142C53.3354 38.9039 53.3759 39.1072 53.3759 39.3125C53.3759 39.5178 53.3354 39.7211 53.2569 39.9108C53.1783 40.1005 53.0632 40.2728 52.918 40.418Z" fill="#FAF7F0"/>
<ellipse cx="47" cy="103" rx="47" ry="3" fill="#C3BFB7"/>
</svg>
