<svg width="60" height="68" viewBox="0 0 60 68" fill="none" xmlns="http://www.w3.org/2000/svg">
<rect x="2.55469" y="1.91406" width="56.8085" height="56.8085" rx="12.766" fill="#D0BDF4"/>
<rect width="56.1702" height="56.1702" rx="12.766" fill="#D0BDF4"/>
<path d="M36.75 22.75H33.25V20.125C33.25 18.7326 32.6969 17.3973 31.7123 16.4127C30.7277 15.4281 29.3924 14.875 28 14.875C26.6076 14.875 25.2723 15.4281 24.2877 16.4127C23.3031 17.3973 22.75 18.7326 22.75 20.125V22.75H19.25C18.7859 22.75 18.3408 22.9344 18.0126 23.2626C17.6844 23.5908 17.5 24.0359 17.5 24.5V36.75C17.5 37.2141 17.6844 37.6592 18.0126 37.9874C18.3408 38.3156 18.7859 38.5 19.25 38.5H36.75C37.2141 38.5 37.6592 38.3156 37.9874 37.9874C38.3156 37.6592 38.5 37.2141 38.5 36.75V24.5C38.5 24.0359 38.3156 23.5908 37.9874 23.2626C37.6592 22.9344 37.2141 22.75 36.75 22.75ZM28.875 31.3502V34.125C28.875 34.3571 28.7828 34.5796 28.6187 34.7437C28.4546 34.9078 28.2321 35 28 35C27.7679 35 27.5454 34.9078 27.3813 34.7437C27.2172 34.5796 27.125 34.3571 27.125 34.125V31.3502C26.5412 31.1437 26.0491 30.7376 25.7358 30.2035C25.4225 29.6694 25.3081 29.0417 25.4128 28.4314C25.5175 27.8211 25.8346 27.2674 26.308 26.8683C26.7815 26.4692 27.3808 26.2503 28 26.2503C28.6192 26.2503 29.2185 26.4692 29.692 26.8683C30.1654 27.2674 30.4825 27.8211 30.5872 28.4314C30.6919 29.0417 30.5775 29.6694 30.2642 30.2035C29.9509 30.7376 29.4588 31.1437 28.875 31.3502ZM31.5 22.75H24.5V20.125C24.5 19.1967 24.8687 18.3065 25.5251 17.6501C26.1815 16.9937 27.0717 16.625 28 16.625C28.9283 16.625 29.8185 16.9937 30.4749 17.6501C31.1313 18.3065 31.5 19.1967 31.5 20.125V22.75Z" fill="#FBF9F4"/>
<ellipse cx="30" cy="65.745" rx="30" ry="1.91489" fill="#C3BFB7"/>
</svg>
