<svg width="44" height="45" viewBox="0 0 44 45" fill="none" xmlns="http://www.w3.org/2000/svg">
<rect y="0.5" width="44" height="44" rx="22" fill="#E5E5E5"/>
<path d="M14.5 29.3845V27.8848H16.3077V20.423C16.3077 19.0782 16.7228 17.8891 17.553 16.8557C18.383 15.8224 19.4487 15.1615 20.75 14.873V14.25C20.75 13.9028 20.8714 13.6077 21.1143 13.3645C21.3571 13.1215 21.6519 13 21.9988 13C22.3458 13 22.641 13.1215 22.8845 13.3645C23.1282 13.6077 23.25 13.9028 23.25 14.25V14.873C24.5513 15.1615 25.617 15.8224 26.447 16.8557C27.2772 17.8891 27.6923 19.0782 27.6923 20.423V27.8848H29.5V29.3845H14.5ZM21.9983 32.1923C21.5008 32.1923 21.0754 32.0153 20.7223 31.6613C20.3689 31.3073 20.1923 30.8817 20.1923 30.3845H23.8077C23.8077 30.8833 23.6306 31.3093 23.2762 31.6625C22.9219 32.0157 22.4959 32.1923 21.9983 32.1923Z" fill="#A3A3A3"/>
</svg>
