<svg version="1.2" xmlns="http://www.w3.org/2000/svg" viewBox="0 0 500 101" width="500" height="101">
	<title>quoteshack-logo</title>
	<defs>
		<clipPath clipPathUnits="userSpaceOnUse" id="cp1">
			<path d="m28-1.67h442.67v101.34h-442.67z"/>
		</clipPath>
	</defs>
	<style>
		.s0 { fill: #00bf63 } 
		.s1 { fill: #004aad } 
	</style>
	<g>
		<g id="Clip-Path" clip-path="url(#cp1)">
			<g>
				<g>
					<g>
						<g>
							<path class="s0" d="m56.04 76.32q1.98-0.99 5.19-0.25 3.23 0.75 7.04 2.43 3.83 1.69 7.75 3.38 3.91 1.69 7.44 2.52 3.54 0.85 6.06 0.06 2.54-0.79 3.52-4.16l0.6 0.1q-0.4 3.95-2.54 7.13-2.12 3.18-5.35 5.06-3.23 1.89-7.08 1.89-3.88 0-7.57-1.68-3.67-1.69-7.18-4.02-3.53-2.34-6.9-4.32-3.38-1.98-6.65-2.68-3.27-0.69-6.43 1l-0.32-0.5 16.19-8.63q-7.65-1.1-13.81-5.96-6.15-4.85-9.77-12.25-3.61-7.39-3.61-16.23 0-7.14 2.42-13.43 2.44-6.32 6.75-11.13 4.31-4.81 9.96-7.48 5.66-2.69 12.12-2.69 6.44 0 12.09 2.69 5.66 2.67 9.98 7.48 4.32 4.81 6.75 11.13 2.43 6.29 2.43 13.43 0 7.15-2.43 13.46-2.43 6.3-6.75 11.11-4.32 4.81-9.98 7.5-5.65 2.67-12.09 2.66-0.68 0.01-1.43-0.04-0.76-0.06-1.55-0.17zm-4.97-37.1q0 34.12 12.81 34.12 12.79 0 12.79-34.12 0-34.14-12.79-34.15-12.81 0.01-12.81 34.15z"/>
						</g>
					</g>
				</g>
				<g>
					<g>
						<g>
							<path class="s0" d="m138.17 66.5q0 1.8 1.19 3.19 1.21 1.38 2.9 1.67v0.6l-16.98 2.48h-0.3q-0.68 0-1.18-0.5-0.5-0.5-0.5-1.19v-1.5q-2.77 1.4-6.21 2.3-3.42 0.89-6.9 0.89-3.46 0-6.43-1.33-2.99-1.35-4.78-4.27-1.79-2.94-1.79-8v-27.69q0-1.87-1.18-3.21-1.19-1.35-2.88-1.64v-0.61l16.98-2.48h0.29q1.69 0 1.69 1.69v32.56q0 2.49-1.29 4.02-1.3 1.53-2.59 2.82-1.29 1.29-1.29 3.18 0 1.59 1.94 2.52 1.94 0.94 4.81 0.94 3.77 0.01 6.5-1.04 2.73-1.04 3.13-1.23v-37.52q0-1.87-1.19-3.21-1.19-1.35-2.88-1.64v-0.61l16.96-2.48h0.32q1.66 0 1.66 1.69z"/>
						</g>
					</g>
				</g>
				<g>
					<g>
						<g>
							<path class="s0" d="m161.4 24.23q6.25 0 11.35 3.38 5.11 3.38 8.19 9.08 3.08 5.69 3.09 12.65-0.01 6.94-3.09 12.64-3.08 5.71-8.19 9.09-5.1 3.37-11.35 3.37-6.25 0-11.37-3.37-5.11-3.38-8.19-9.09-3.06-5.7-3.06-12.64 0-6.96 3.06-12.65 3.08-5.7 8.19-9.08 5.12-3.38 11.37-3.38zm0 49.61q7.63 0 7.63-24.5 0-24.52-7.63-24.52-7.75 0-7.75 24.52 0 24.5 7.75 24.5z"/>
						</g>
					</g>
				</g>
				<g>
					<g>
						<g>
							<path class="s0" d="m204.85 70.38q1.68 0 2.98-0.9v0.69q-1.8 1.3-4.88 2.79-3.06 1.48-7.23 1.48-4.56 0-7.85-3.27-3.27-3.29-3.27-7.85v-37.5h-4.06v-0.61q5.56 0.01 10.37-2.41 4.81-2.44 7.98-6.5h0.6v8.91h6.44v0.61h-6.44v39.18q0 2.19 1.59 3.8 1.58 1.58 3.77 1.58z"/>
						</g>
					</g>
				</g>
				<g>
					<g>
						<g>
							<path class="s0" d="m234.42 67.59q2.88 0 5.5-1.38 2.63-1.39 4.71-3.87l0.5 0.29q-2.98 5.36-8.04 8.58-5.06 3.24-11.1 3.23-6.25 0-11.38-3.37-5.11-3.38-8.19-9.09-3.06-5.7-3.06-12.64 0-6.96 3.06-12.65 3.08-5.7 8.19-9.08 5.13-3.38 11.38-3.38 5.45 0.01 9.77 2.59 4.31 2.56 7.23 6.98 2.93 4.42 4.02 10.08h-28.77q0 6.55 2.18 11.96 2.19 5.4 5.86 8.58 3.66 3.17 8.14 3.17zm-8.43-42.77q-2.09 0-3.44 1.54-1.34 1.54-2.23 3.98-0.9 2.42-1.29 5-0.4 2.58-0.61 4.77-0.18 2.19-0.18 3.17h15.29q-0.9-18.46-7.54-18.46z"/>
						</g>
					</g>
				</g>
				<g>
					<g>
						<g>
							<path class="s0" d="m296.73 54.8q0.29 3.96-1.65 7.48-1.94 3.52-5.6 6.1-3.67 2.58-8.48 4.08-4.81 1.49-10.17 1.48-6.96 0-12.87-2.27-5.9-2.29-9.42-6.17-3.52-3.87-3.52-8.72 0-4.38 3.13-7.5 3.12-3.13 7.5-3.13 4.35 0 7.47 3.13 3.13 3.12 3.13 7.5 0 2.77-1 4.56-0.98 1.79-2.23 2.98-1.23 1.19-2.08 2.29-0.84 1.09-0.54 2.48 0.39 1.87 2.97 3.06 2.59 1.19 7.46 1.19 2.56 0 4.84-1.23 2.29-1.25 3.73-3.38 1.45-2.12 1.45-4.81 0-3.77-2.58-7.14-2.59-3.38-6.67-6.61-4.06-3.22-8.68-6.5-4.61-3.27-8.67-6.83-4.07-3.58-6.65-7.54-2.58-3.98-2.58-8.65 0-4.45 2.38-7.52 2.39-3.08 6.2-5.02 3.83-1.94 8.23-2.77 4.42-0.85 8.4-0.86 4.77 0.01 8.33 0.71 3.58 0.69 7.75 0.69 1.69 0 3.02-0.29 1.33-0.31 2.34-1.11h0.58v18.75q0 0-0.21 0-0.19 0-0.37 0-0.8-4.16-3.38-8.33-2.58-4.16-6.56-6.94-3.96-2.79-9.13-2.79-3.77 0-6.75 1.94-2.98 1.94-3.27 6.39-0.29 3.88 1.94 7.15 2.23 3.27 6 6.31 3.77 3.03 8.08 6.07 4.33 3.02 8.3 6.29 3.97 3.27 6.7 7.04 2.73 3.77 3.13 8.44z"/>
						</g>
					</g>
				</g>
				<g>
					<g>
						<g>
							<path class="s0" d="m337.88 68.48q0 1.8 1.19 3.19 1.21 1.38 2.9 1.67v0.6h-23.02v-0.6q1.68-0.29 2.87-1.67 1.19-1.39 1.19-3.19v-29.27q0-2.57 1.29-4.06 1.29-1.5 2.58-2.83 1.29-1.33 1.29-3.13 0-1.68-1.89-2.58-1.88-0.89-4.86-0.9-3.67 0-6.39 1.04-2.73 1.05-3.23 1.25v40.48q0 1.8 1.19 3.19 1.18 1.38 2.87 1.67v0.6h-23.02v-0.6q1.69-0.29 2.88-1.67 1.18-1.39 1.18-3.19v-56.06q0-1.79-1.18-3.17-1.19-1.39-2.88-1.68v-0.61l16.98-2.48q0.08 0 0.13 0 0.06 0 0.16 0 1.69 0.01 1.69 1.8v21.02q2.77-1.38 6.19-2.21 3.43-0.85 6.89-0.86 3.48 0.01 6.46 1.34 2.98 1.33 4.75 4.27 1.79 2.92 1.79 7.98z"/>
						</g>
					</g>
				</g>
				<g>
					<g>
						<g>
							<path class="s0" d="m379.26 66.5q0 1.8 1.18 3.19 1.21 1.38 2.9 1.67v0.6l-17.08 2.48q0 0-0.04 0-0.05 0-0.15 0-0.71 0-1.25-0.54-0.54-0.56-0.54-1.25v-2.48q-1.8 1.3-4.81 2.79-3.03 1.48-7.19 1.48-4.67 0.01-8.44-2.48-3.77-2.47-4.85-6.64-1.21-4.27 0.87-8.34 2.08-4.07 6.17-6.56 2.58-1.58 6.54-3.02 3.98-1.44 8.33-2.87 4.38-1.44 8.19-2.98 3.81-1.54 6.25-3.38 2.44-1.83 2.44-4.12 0-1.98-1.75-3.96-1.73-2-4.11-3.19-2.87-1.37-6.35-1.87-3.48-0.5-7.15 0.1-5.64 0.8-5.64 3.77 0 1.77 1.08 3.06 1.08 1.3 2.13 2.73 1.04 1.44 1.04 3.73 0 3.17-2.29 5.42-2.28 2.23-5.44 2.23-3.19 0-5.42-2.23-2.23-2.25-2.23-5.42 0-3.87 2.67-6.79 2.68-2.94 6.6-4.77 3.94-1.83 7.4-2.33 7.94-1.19 13.9 1.89 2.87 1.38 4.95 3.92 2.08 2.52 2.09 6.19zm-14.98 2.97v-25.5q-1.98 0.88-4.42 2.42-2.44 1.55-4.23 4.19-1.77 2.63-2.06 6.79-0.21 3.56 0.58 6.29 0.79 2.73 2.4 4.42 1.68 1.8 3.92 2.19 2.22 0.39 3.81-0.8z"/>
						</g>
					</g>
				</g>
				<g>
					<g>
						<g>
							<path class="s0" d="m402.48 24.82q-1.29 0-3.12 2.58-1.84 2.59-3.23 6.9-1.4 4.31-1.4 9.58 0 6.55 2.19 11.96 2.18 5.4 5.85 8.58 3.67 3.17 8.15 3.17 2.87 0 5.5-1.38 2.62-1.39 4.71-3.87l0.5 0.29q-2.98 5.36-8.04 8.58-5.07 3.24-11.11 3.23-6.25 0-11.37-3.37-5.11-3.38-8.19-9.09-3.06-5.7-3.06-12.64 0-6.96 3.06-12.65 3.08-5.7 8.19-9.08 5.12-3.38 11.37-3.38 5.06 0 9.42 2.19 4.37 2.17 7.04 5.4 2.69 3.23 2.69 6.39 0 3.19-2.29 5.42-2.28 2.23-5.46 2.23-3.07 0-5.36-2.23-2.27-2.23-2.27-5.42 0-2.58 1.09-4.02 1.07-1.44 2.12-2.62 1.04-1.19 1.04-2.88 0-1.79-1.48-2.58-1.48-0.79-3.41-1.04-1.94-0.25-3.13-0.25z"/>
						</g>
					</g>
				</g>
				<g>
					<g>
						<g>
							<path class="s0" d="m448.8 39.4q1.29 1 2.69 3.88 1.39 2.87 2.83 6.81 1.43 3.92 2.98 7.98 1.54 4.06 3.21 7.58 1.68 3.52 3.58 5.52 1.98 2.17 4.77 2.17v0.6h-18.06q-1.19 0-2.19-0.89-1-0.9-2.08-3.09-1.3-2.66-2.65-6.29-1.34-3.62-2.66-7.25-1.34-3.62-2.63-6.39-1.29-2.77-2.48-3.78 0 0.61 0 3.48 0 2.88 0 6.65 0 3.77 0 7.1 0 3.32 0 5 0 1.8 1.19 3.19 1.19 1.38 2.87 1.67v0.6h-23.02v-0.6q1.69-0.29 2.88-1.67 1.19-1.39 1.19-3.19v-56.06q0-1.79-1.19-3.17-1.19-1.39-2.88-1.68v-0.61l16.98-2.48q0.08 0 0.13 0 0.06 0 0.16 0 1.69 0.01 1.69 1.8 0 13.19 0 23.27 0 10.06 0 16.12 2.37 0 5.29-1.69 2.94-1.68 5.61-3.87 2.68-2.19 4.29-3.67 1.98-2 1.98-4.58 0-2.37-1.61-4.11-1.58-1.75-3.85-1.93v-0.61h21.04q0 0.01 0 0.21 0 0.19 0 0.4-3.58 0.29-6.96 2.54-3.37 2.23-6.6 5.25-3.21 3.02-6.5 5.79z"/>
						</g>
					</g>
				</g>
			</g>
		</g>
	</g>
	<g>
		<g>
			<g>
				<path class="s1" d="m98.45 83.78v4.21h7.4v2.98h-7.4v5.81h-3.68v-15.98h12.06v2.98z"/>
			</g>
		</g>
	</g>
	<g>
		<g>
			<g>
				<path class="s1" d="m114.83 80.8h3.69v15.98h-3.69z"/>
			</g>
		</g>
	</g>
	<g>
		<g>
			<g>
				<path class="s1" d="m142.45 80.8v15.98h-3.04l-7.96-9.68v9.68h-3.64v-15.98h3.06l7.94 9.71v-9.71z"/>
			</g>
		</g>
	</g>
	<g>
		<g>
			<g>
				<path class="s1" d="m162.25 93.37h-7.42l-1.42 3.41h-3.79l7.13-15.98h3.64l7.15 15.98h-3.88zm-1.16-2.81l-2.54-6.1-2.52 6.1z"/>
			</g>
		</g>
	</g>
	<g>
		<g>
			<g>
				<path class="s1" d="m189.33 80.8v15.98h-3.04l-7.96-9.68v9.68h-3.64v-15.98h3.06l7.94 9.71v-9.71z"/>
			</g>
		</g>
	</g>
	<g>
		<g>
			<g>
				<path class="s1" d="m206.25 97.05q-2.44 0-4.41-1.06-1.98-1.06-3.11-2.94-1.12-1.87-1.12-4.25 0-2.37 1.12-4.25 1.13-1.89 3.11-2.95 1.97-1.07 4.43-1.07 2.06 0 3.73 0.73 1.69 0.73 2.84 2.11l-2.38 2.18q-1.61-1.87-4-1.87-1.5 0-2.66 0.67-1.15 0.64-1.82 1.81-0.64 1.17-0.64 2.64 0 1.49 0.64 2.65 0.67 1.17 1.82 1.81 1.16 0.65 2.66 0.65 2.39 0 4-1.9l2.38 2.19q-1.15 1.4-2.84 2.12-1.68 0.73-3.75 0.73z"/>
			</g>
		</g>
	</g>
	<g>
		<g>
			<g>
				<path class="s1" d="m220.82 80.8h3.68v15.98h-3.68z"/>
			</g>
		</g>
	</g>
	<g>
		<g>
			<g>
				<path class="s1" d="m244.31 93.37h-7.41l-1.42 3.41h-3.79l7.12-15.98h3.65l7.15 15.98h-3.88zm-1.17-2.81l-2.54-6.1-2.52 6.1z"/>
			</g>
		</g>
	</g>
	<g>
		<g>
			<g>
				<path class="s1" d="m256.75 80.8h3.69v12.96h8.02v3.02h-11.71z"/>
			</g>
		</g>
	</g>
	<g>
		<g>
			<g>
			</g>
		</g>
	</g>
	<g>
		<g>
			<g>
				<path class="s1" d="m298.49 93.37h-7.41l-1.42 3.41h-3.79l7.12-15.98h3.65l7.15 15.98h-3.88zm-1.17-2.81l-2.54-6.1-2.52 6.1z"/>
			</g>
		</g>
	</g>
	<g>
		<g>
			<g>
				<path class="s1" d="m325.58 80.8v15.98h-3.04l-7.96-9.68v9.68h-3.64v-15.98h3.06l7.94 9.71v-9.71z"/>
			</g>
		</g>
	</g>
	<g>
		<g>
			<g>
				<path class="s1" d="m345.38 93.37h-7.42l-1.42 3.41h-3.79l7.13-15.98h3.64l7.15 15.98h-3.88zm-1.16-2.81l-2.55-6.1-2.52 6.1z"/>
			</g>
		</g>
	</g>
	<g>
		<g>
			<g>
				<path class="s1" d="m357.82 80.8h3.68v12.96h8.02v3.02h-11.7z"/>
			</g>
		</g>
	</g>
	<g>
		<g>
			<g>
				<path class="s1" d="m384.75 91.12v5.66h-3.71v-5.71l-6.16-10.27h3.91l4.27 7.11 4.27-7.11h3.63z"/>
			</g>
		</g>
	</g>
	<g>
		<g>
			<g>
				<path class="s1" d="m401.31 83.82h-5.13v-3.02h13.92v3.02h-5.11v12.96h-3.68z"/>
			</g>
		</g>
	</g>
	<g>
		<g>
			<g>
				<path class="s1" d="m417.58 80.8h3.69v15.98h-3.69z"/>
			</g>
		</g>
	</g>
	<g>
		<g>
			<g>
				<path class="s1" d="m438.2 97.05q-2.44 0-4.41-1.06-1.98-1.06-3.11-2.94-1.12-1.87-1.12-4.25 0-2.37 1.12-4.25 1.13-1.89 3.11-2.95 1.97-1.07 4.43-1.07 2.06 0 3.73 0.73 1.69 0.73 2.84 2.11l-2.38 2.18q-1.61-1.87-4-1.87-1.5 0-2.66 0.67-1.15 0.64-1.82 1.81-0.64 1.17-0.64 2.64 0 1.49 0.64 2.65 0.67 1.17 1.82 1.81 1.16 0.65 2.66 0.65 2.39 0 4-1.9l2.38 2.19q-1.15 1.4-2.84 2.12-1.68 0.73-3.75 0.73z"/>
			</g>
		</g>
	</g>
	<g>
		<g>
			<g>
				<path class="s1" d="m458.02 97.05q-1.9 0-3.67-0.5-1.77-0.51-2.83-1.35l1.25-2.77q1.01 0.75 2.43 1.21 1.42 0.46 2.84 0.46 1.56 0 2.31-0.46 0.77-0.48 0.77-1.25 0-0.58-0.46-0.96-0.44-0.37-1.14-0.61-0.69-0.22-1.88-0.5-1.81-0.43-2.98-0.85-1.17-0.44-2-1.4-0.83-0.95-0.83-2.56 0-1.39 0.75-2.52 0.75-1.12 2.27-1.79 1.52-0.67 3.71-0.67 1.52 0 2.98 0.38 1.47 0.35 2.56 1.04l-1.15 2.81q-2.21-1.25-4.41-1.25-1.56 0-2.31 0.5-0.74 0.5-0.73 1.31-0.01 0.84 0.85 1.23 0.85 0.4 2.63 0.8 1.81 0.41 2.97 0.85 1.17 0.44 2 1.37 0.84 0.94 0.84 2.55 0 1.36-0.77 2.5-0.75 1.12-2.29 1.79-1.53 0.64-3.71 0.64z"/>
			</g>
		</g>
	</g>
</svg>